# xmcd
# Track frame offsets:
# 150
# 17245
# 31067
# 48660
# 60775
# 71817
# 86445
# 99722
# 114250
# 125435
# 138735
# 152800
#
# Disc length: 2211 seconds
# Revision: 0
# Processed by: cddbd v1.4PL0 Copyright (c) Steve Scherf et al.
# Submitted via: VisiTrax 2.9.5.180 - For more info visit www.synapsa.com
#
DISCID=9d08a10c
DTITLE=Rick Freyefield - Midtown country
DYEAR=1900
DGENRE=
TTITLE0=A way to survive
TTITLE1=Gonna burn some bridges
TTITLE2=You don't have very far to go
TTITLE3=I miss you
TTITLE4=All my lovin'
TTITLE5=Couldn't love have picked a better place to die
TTITLE6=One too many memories
TTITLE7=My baby's gone
TTITLE8=It's alright with me
TTITLE9=Too young
TTITLE10=He don't deserve you anymore
TTITLE11=I'll go to a stranger
EXTD=
EXTT0=
EXTT1=
EXTT2=
EXTT3=
EXTT4=
EXTT5=
EXTT6=
EXTT7=
EXTT8=
EXTT9=
EXTT10=
EXTT11=
PLAYORDER=
